<?xml version="1.0" encoding="UTF-8"?>
<!DOCTYPE svg PUBLIC "-//W3C//DTD SVG 1.1//EN" "http://www.w3.org/Graphics/SVG/1.1/DTD/svg11.dtd">
<!-- Creator: CorelDRAW X7 -->
<svg xmlns="http://www.w3.org/2000/svg" xml:space="preserve" width="100px" height="100px" version="1.1" style="shape-rendering:geometricPrecision; text-rendering:geometricPrecision; image-rendering:optimizeQuality; fill-rule:evenodd; clip-rule:evenodd"
viewBox="0 0 100 100"
 xmlns:xlink="http://www.w3.org/1999/xlink">
 <defs>
  <style type="text/css">
   <![CDATA[
    .fil0 {fill:#FE0000}
    .fil1 {fill:#FEFEFE}
   ]]>
  </style>
 </defs>
 <g id="MTS">
  <metadata id="CorelCorpID_0Corel-Layer"/>
  <g id="_615370163728">
   <path class="fil0" d="M21 61c-1,-9 2,-21 5,-28 8,-17 23,-33 39,-14 3,3 5,6 7,10 6,12 10,28 5,42 -7,21 -32,23 -45,13 -6,-5 -10,-12 -11,-23zm-21 -61l100 0 0 100 -100 0 0 -100z"/>
   <path class="fil1" d="M21 61c1,11 5,18 11,23 13,10 38,8 45,-13 5,-14 1,-30 -5,-42 -2,-4 -4,-7 -7,-10 -16,-19 -31,-3 -39,14 -3,7 -6,19 -5,28z"/>
  </g>
 </g>
</svg>
