<?xml version="1.0" encoding="utf-8"?>
<!-- Generator: Adobe Illustrator 19.1.0, SVG Export Plug-In . SVG Version: 6.00 Build 0)  -->
<svg version="1.1" id="Слой_1" xmlns="http://www.w3.org/2000/svg" xmlns:xlink="http://www.w3.org/1999/xlink" x="0px" y="0px"
	 viewBox="0 0 294.2 58.7" style="enable-background:new 0 0 294.2 58.7;" xml:space="preserve">
<style type="text/css">
	.st0{fill:#39C3DE;}
	.st1{fill:#00A3DC;}
	.st2{fill:#0081C7;}
	.st3{fill:#3CC4E0;}
	.st4{fill:#00A4DA;}
	.st5{fill:#50C3DF;}
	.st6{fill:#00AAD4;}
	.st7{fill:#0084BF;}
	.st8{fill:#FFFFFF;}
</style>
<g id="XMLID_2_">
	<polygon id="XMLID_10_" class="st0" points="47.9,32.1 27.9,3.3 22.1,25.6 	"/>
	<polygon id="XMLID_9_" class="st1" points="0,0 27.9,3.3 21.4,29 11.5,15.5 	"/>
	<polygon id="XMLID_8_" class="st2" points="0,5.2 3.4,4.7 12.2,16.5 	"/>
	<polygon id="XMLID_7_" class="st3" points="21.4,29 25,44.8 25,48.9 12.2,58.7 	"/>
	<polygon id="XMLID_6_" class="st4" points="47.9,32.1 25,44.8 21.4,29 22.2,25.7 	"/>
	<polygon id="XMLID_5_" class="st5" points="46.9,35.7 47.9,32.1 25,44.8 	"/>
	<polygon id="XMLID_4_" class="st6" points="53.6,18.3 39.7,20.3 47.9,32.1 	"/>
	<polygon id="XMLID_3_" class="st7" points="59.2,24.5 53.6,18.3 51.1,24.5 	"/>
</g>
<g id="XMLID_12_">
	<path class="st8" d="M93.3,19.5c0,4.1-1.2,7.3-3.7,9.6c-2.4,2.3-5.9,3.4-10.4,3.4h-2.8v12.3h-10v-37h12.8c4.7,0,8.2,1,10.5,3.1
		S93.3,15.8,93.3,19.5z M76.4,24.4h1.8c1.5,0,2.7-0.4,3.6-1.3c0.9-0.8,1.3-2,1.3-3.5c0-2.5-1.4-3.7-4.2-3.7h-2.6V24.4z"/>
	<path class="st8" d="M109.2,31.3v13.5h-10v-37h12.1c10.1,0,15.1,3.6,15.1,10.9c0,4.3-2.1,7.6-6.3,10L131,44.8h-11.3l-7.9-13.5
		H109.2z M109.2,23.8h1.9c3.5,0,5.2-1.5,5.2-4.6c0-2.6-1.7-3.8-5.1-3.8h-2V23.8z"/>
	<path class="st8" d="M157,44.8l-1.8-6.9h-12l-1.9,6.9h-11l12.1-37.2h13.4L168,44.8H157z M153.1,29.6l-1.6-6.1
		c-0.4-1.4-0.8-3.1-1.4-5.2s-0.9-3.7-1.1-4.6c-0.2,0.9-0.5,2.3-0.9,4.3c-0.4,2-1.4,5.9-3,11.7H153.1z"/>
	<path class="st8" d="M186.9,23.1h16v20c-4.3,1.5-9.1,2.2-14.3,2.2c-5.7,0-10.1-1.7-13.2-5c-3.1-3.3-4.7-8-4.7-14.2
		c0-6,1.7-10.6,5.1-14c3.4-3.3,8.2-5,14.3-5c2.3,0,4.5,0.2,6.6,0.7c2.1,0.4,3.9,1,5.4,1.7l-3.2,7.9c-2.7-1.3-5.6-2-8.8-2
		c-2.9,0-5.2,0.9-6.8,2.9c-1.6,1.9-2.4,4.6-2.4,8.1c0,3.5,0.7,6.1,2.2,7.9s3.5,2.7,6.2,2.7c1.5,0,2.9-0.1,4.1-0.4v-5.8h-6.6V23.1z"
		/>
	<path class="st8" d="M226.5,44.8L219,18.1h-0.2c0.4,4.5,0.5,8.1,0.5,10.6v16.1h-8.9v-37h13.3l7.7,26.3h0.2l7.6-26.3h13.4v37h-9.2
		V28.6c0-0.8,0-1.8,0-2.8c0-1,0.1-3.6,0.3-7.6h-0.2l-7.5,26.6H226.5z"/>
	<path class="st8" d="M283.3,44.8l-1.8-6.9h-12l-1.9,6.9h-11l12.1-37.2H282l12.2,37.2H283.3z M279.4,29.6l-1.6-6.1
		c-0.4-1.4-0.8-3.1-1.4-5.2s-0.9-3.7-1.1-4.6c-0.2,0.9-0.5,2.3-0.9,4.3c-0.4,2-1.4,5.9-3,11.7H279.4z"/>
</g>
<g>
</g>
<g>
</g>
<g>
</g>
<g>
</g>
<g>
</g>
<g>
</g>
</svg>
